<svg width="48" height="54" viewBox="0 0 48 54" fill="none" xmlns="http://www.w3.org/2000/svg">
<path d="M3 53H47.0005V2.5L42 4.5L4.5 50.5L3 53Z" fill="#313244"/>
<path d="M47 1.5H46.5L40 4L4.5 49.5L2.5 51.5V53.5" stroke="#585b70" stroke-width="3"/>
<path d="M47 17H42.5L29 31L23.5 49V53" stroke="#a6adc8" stroke-opacity="0.5" stroke-width="4"/>
<path d="M43.5102 25.8268L42 3.50001L36.9746 4.91268C36.9746 4.91268 1.49997 47 2.49997 47.5C3.49997 48 45.0744 50.8579 45.0744 50.8579L43.5102 25.8268Z" fill="#6c7086"/>
<path d="M43.5102 25.8268L42 3.50001L36.9746 4.91268C36.9746 4.91268 1.49997 47 2.49997 47.5C3.49997 48 45.0744 50.8579 45.0744 50.8579L43.5102 25.8268Z" stroke="#585b70" stroke-width="3"/>
</svg>
